<svg preserveAspectRatio="none" overflow="visible" style="display: block;" width="15.1334" height="14.6931" viewBox="0 0 15.1334 14.6931" fill="none" xmlns="http://www.w3.org/2000/svg">
<path id="Vector" d="M7.56667 13.7931C7.56667 13.7931 0.9 9.79307 0.9 4.6264C0.904867 3.85294 1.14879 3.09991 1.59833 2.47049C2.04788 1.84106 2.68106 1.36605 3.41111 1.11053C4.14116 0.855013 4.93237 0.831494 5.67631 1.0432C6.42025 1.2549 7.08053 1.69146 7.56667 2.29307C8.05281 1.69146 8.71309 1.2549 9.45703 1.0432C10.201 0.831494 10.9922 0.855013 11.7222 1.11053C12.4523 1.36605 13.0855 1.84106 13.535 2.47049C13.9845 3.09991 14.2285 3.85294 14.2333 4.6264C14.2333 9.79307 7.56667 13.7931 7.56667 13.7931Z" stroke="white" stroke-width="1.8" stroke-linecap="round" stroke-linejoin="round"/>
</svg>
